<svg viewBox="0 0 146 105" fill="none" xmlns="http://www.w3.org/2000/svg">
<path 
d="M89.2648 5.04578L83.0273 11.2832L83.6322 11.888L89.8696 5.65062L89.2648 5.04578Z" 
fill="black"
></path>
<path 
d="M56.0482 5.04457L55.4434 5.64941L61.6808 11.8868L62.2856 11.282L56.0482 5.04457Z" 
fill="black"
></path>
<path
  d="M73.0741 0H72.2188V8.82114H73.0741V0Z"
  fill="black"
></path>
<path
  d="M121.529 55.752V70.2756C121.529 71.9508 120.959 73.5724 119.916 74.8822L118.811 76.2722C117.225 78.2592 117.207 81.0659 118.767 83.0797L126.51 93.0948L130.956 89.4148L123.035 81.3867L122.037 79.0077L122.562 77.0563L124.175 74.4724L124.799 73.4744L125.262 71.8706V64.1365V61.1248L125.102 60.1447L123.979 58.5052L121.529 55.752Z"
  fill="#C4C4C4"
></path>
<path
  d="M14.3622 89.4062L1.02362 100.553C-0.143623 101.533 0.542466 103.44 2.06612 103.44H23.3259C24.8229 103.44 26.1772 102.54 26.7653 101.159L29.2067 95.3583L14.3622 89.4062Z"
  fill="black"
></path>
<path
  d="M65.9093 95.5981L65.3925 95.4823C55.1902 93.2013 46.6008 86.1087 42.4219 76.5124L43.206 76.1738C47.2067 85.3602 55.3506 92.1855 65.0539 94.5289V82.4466C65.0539 81.8051 64.8668 81.1368 64.5371 80.5576L58.1217 69.8653C57.4624 68.7516 56.2506 68.0566 54.9675 68.0566H45.2375V67.2012H54.9675C56.5535 67.2012 58.0504 68.0566 58.8613 69.4287L65.2766 80.121C65.6954 80.8427 65.9182 81.6447 65.9182 82.4466V95.5981H65.9093Z"
  fill="#231F20"
></path>
<path
  d="M100.061 58.4869H99.767C98.9383 58.4869 98.1453 58.2641 97.4592 57.8453L85.573 50.5567C85.0205 50.2182 84.379 50.04 83.7107 50.04H61.5866C60.9183 50.04 60.2768 50.2182 59.7244 50.5567L47.8381 57.8453C47.152 58.2641 46.3501 58.4869 45.5304 58.4869H45.2363V57.6315H45.5304C46.1986 57.6315 46.8402 57.4533 47.3926 57.1147L59.2789 49.8261C59.965 49.4073 60.7669 49.1846 61.5866 49.1846H83.7107C84.5305 49.1846 85.3324 49.4073 86.0185 49.8261L97.9047 57.1147C98.4572 57.4533 99.0987 57.6315 99.767 57.6315H100.061V58.4869Z"
  fill="#231F20"
></path>
<path
  d="M103.839 55.128L103.669 55.0389L103.616 54.8518C99.847 40.9162 87.1143 31.1862 72.6351 31.1862C58.156 31.1862 45.4232 40.9251 41.6542 54.8607L41.6008 55.0478L41.4315 55.1369L41.2354 54.7805L40.9236 55.0924L40.7988 54.7092L40.8434 54.6469H40.8256C44.6926 40.3459 57.7728 30.3486 72.6351 30.3486C87.435 30.3486 100.462 40.2479 104.391 54.4597L104.418 54.4686L104.516 54.9231L104.356 55.0924L104.053 54.7894L103.839 55.128ZM103.75 54.4776L104.044 54.7716L103.75 54.4776Z"
  fill="#231F20"
></path>
<path
  d="M79.4004 95.5981V82.4466C79.4004 81.609 79.6231 80.8071 80.0419 80.121L86.4573 69.4287C87.2681 68.0566 88.7561 67.2012 90.3511 67.2012H100.081V68.0566H90.3511C89.068 68.0566 87.8562 68.7516 87.1968 69.8653L80.7815 80.5576C80.4429 81.1101 80.2647 81.7605 80.2647 82.4377V94.52C89.9679 92.1766 98.1119 85.3513 102.113 76.1649L102.897 76.5035C98.7178 86.0998 90.1283 93.1923 79.935 95.4734L79.4004 95.5981Z"
  fill="#231F20"
></path>
<path
  d="M72.6391 104.829C57.9907 104.829 44.2689 96.9883 36.8467 84.3536L37.5863 83.917C44.857 96.2844 58.2937 103.965 72.6391 103.965C86.9846 103.965 100.421 96.2844 107.692 83.917L108.432 84.3536C101.009 96.9883 87.2965 104.829 72.6391 104.829ZM79.3842 95.5983V82.4468C79.3842 81.6092 79.6069 80.8073 80.0257 80.1212L86.4411 69.4289C87.2519 68.0568 88.7399 67.2014 90.3349 67.2014H100.065V68.0568H90.3349C89.0518 68.0568 87.84 68.7518 87.1806 69.8655L80.7653 80.5578C80.4267 81.1103 80.2485 81.7607 80.2485 82.4379V94.5202C89.9517 92.1768 98.0957 85.3515 102.096 76.1651L102.88 76.5037C98.7016 86.1 90.1121 93.1925 79.9188 95.4736L79.3842 95.5983ZM65.903 95.5983L65.3862 95.4825C55.184 93.2015 46.5945 86.1089 42.4156 76.5126L43.1997 76.174C47.2004 85.3604 55.3444 92.1857 65.0476 94.5291V82.4468C65.0476 81.8053 64.8605 81.137 64.5308 80.5578L58.1155 69.8655C57.4561 68.7518 56.2443 68.0568 54.9612 68.0568H45.2312V67.2014H54.9612C56.5472 67.2014 58.0442 68.0568 58.855 69.4289L65.2704 80.1212C65.6892 80.8429 65.9119 81.6449 65.9119 82.4468V95.5983H65.903ZM100.056 58.4872H99.7619C98.9333 58.4872 98.1402 58.2644 97.4542 57.8456L85.5679 50.5571C85.0155 50.2185 84.3739 50.0403 83.7057 50.0403H61.5815C60.9133 50.0403 60.2717 50.2185 59.7193 50.5571L47.833 57.8456C47.1469 58.2644 46.345 58.4872 45.5253 58.4872H45.2312V57.6318H45.5253C46.1936 57.6318 46.8351 57.4536 47.3875 57.115L59.2738 49.8264C59.9599 49.4076 60.7618 49.1849 61.5815 49.1849H83.7057C84.5254 49.1849 85.3273 49.4076 86.0134 49.8264L97.8997 57.115C98.4521 57.4536 99.0936 57.6318 99.7619 57.6318H100.056V58.4872ZM103.843 55.128L103.674 55.0389L103.62 54.8518C99.851 40.9162 87.1183 31.1862 72.6391 31.1862C58.16 31.1862 45.4273 40.9251 41.6582 54.8607L41.6048 55.0478L41.4355 55.1369L41.2395 54.7805L40.9276 55.0924L40.8029 54.7092L40.8474 54.6469H40.8296C44.6966 40.3459 57.7769 30.3486 72.6391 30.3486C87.439 30.3486 100.466 40.2479 104.395 54.4597L104.422 54.4686L104.52 54.9231L104.36 55.0924L104.057 54.7894L103.843 55.128ZM103.754 54.4776L104.048 54.7716L103.754 54.4776ZM110.944 49.6304C105.188 33.4939 89.8003 22.6591 72.6481 22.6591C55.4869 22.6591 40.09 33.5029 34.3429 49.6304L33.541 49.3453C39.4129 32.8702 55.1305 21.8037 72.6481 21.8037C90.1656 21.8037 105.883 32.8702 111.755 49.3453L110.944 49.6304Z"
  fill="black"
></path>
<path
  d="M65.9093 95.5981L65.3925 95.4823C55.1902 93.2013 46.6008 86.1087 42.4219 76.5124L43.206 76.1738C47.2067 85.3602 55.3506 92.1855 65.0539 94.5289V82.4466C65.0539 81.8051 64.8668 81.1368 64.5371 80.5576L58.1217 69.8653C57.4624 68.7516 56.2506 68.0566 54.9675 68.0566H45.2375V67.2012H54.9675C56.5535 67.2012 58.0504 68.0566 58.8613 69.4287L65.2766 80.121C65.6954 80.8427 65.9182 81.6447 65.9182 82.4466V95.5981H65.9093Z"
  fill="black"
></path>
<path
  d="M100.061 58.4869H99.767C98.9383 58.4869 98.1453 58.2641 97.4592 57.8453L85.573 50.5567C85.0205 50.2182 84.379 50.04 83.7107 50.04H61.5866C60.9183 50.04 60.2768 50.2182 59.7244 50.5567L47.8381 57.8453C47.152 58.2641 46.3501 58.4869 45.5304 58.4869H45.2363V57.6315H45.5304C46.1986 57.6315 46.8402 57.4533 47.3926 57.1147L59.2789 49.8261C59.965 49.4073 60.7669 49.1846 61.5866 49.1846H83.7107C84.5305 49.1846 85.3324 49.4073 86.0185 49.8261L97.9047 57.1147C98.4572 57.4533 99.0987 57.6315 99.767 57.6315H100.061V58.4869Z"
  fill="black"
></path>
<path
  d="M103.839 55.128L103.669 55.0389L103.616 54.8518C99.847 40.9162 87.1143 31.1862 72.6351 31.1862C58.156 31.1862 45.4232 40.9251 41.6542 54.8607L41.6008 55.0478L41.4315 55.1369L41.2354 54.7805L40.9236 55.0924L40.7988 54.7092L40.8434 54.6469H40.8256C44.6926 40.3459 57.7728 30.3486 72.6351 30.3486C87.435 30.3486 100.462 40.2479 104.391 54.4597L104.418 54.4686L104.516 54.9231L104.356 55.0924L104.053 54.7894L103.839 55.128ZM103.75 54.4776L104.044 54.7716L103.75 54.4776Z"
  fill="black"
></path>
<path
  d="M79.4004 95.5981V82.4466C79.4004 81.609 79.6231 80.8071 80.0419 80.121L86.4573 69.4287C87.2681 68.0566 88.7561 67.2012 90.3511 67.2012H100.081V68.0566H90.3511C89.068 68.0566 87.8562 68.7516 87.1968 69.8653L80.7815 80.5576C80.4429 81.1101 80.2647 81.7605 80.2647 82.4377V94.52C89.9679 92.1766 98.1119 85.3513 102.113 76.1649L102.897 76.5035C98.7178 86.0998 90.1283 93.1923 79.935 95.4734L79.4004 95.5981Z"
  fill="black"
></path>
<path
  d="M83.4822 63.3173C83.4822 69.3139 78.6261 74.1521 72.6473 74.1521C66.6508 74.1521 61.8125 69.3139 61.8125 63.3173C61.8125 57.3385 66.6508 52.4824 72.6473 52.4824C78.6261 52.4824 83.4822 57.3385 83.4822 63.3173Z"
  fill="#05D484"
></path>
<path
  d="M39.0877 74.1067L25.0273 93.8696L29.5716 95.8834L45.2447 72.7969V60.4295V55.4843L43.5963 53.8359H41.9479L40.941 55.52L40.2015 57.4268L40.2728 70.3822C40.2817 71.7188 39.8629 73.0197 39.0877 74.1067Z"
  fill="#C4C4C4"
></path>
<path
  d="M29.3568 95.8745L13.6035 89.5661L21.9702 81.0835C22.9771 80.0589 23.1464 78.4996 22.389 77.2789L20.1525 73.6969C19.814 73.1445 19.6268 72.5208 19.6268 71.8704V61.1246C19.6268 60.2603 19.9476 59.4317 20.5179 58.7901L29.4281 48.8552C30.2389 47.9553 31.3973 47.4385 32.6091 47.4385H33.4823C33.9723 47.4385 34.3733 47.8394 34.3733 48.3295V57.1328C34.3733 57.8367 34.9435 58.4159 35.6564 58.4159H38.1245C38.8551 58.4159 39.5323 57.9526 39.7907 57.2754L40.7708 54.7538C40.8867 54.4508 41.0738 54.1835 41.3054 53.9608L41.546 53.7291C41.9915 53.3103 42.5974 53.1143 43.2033 53.1678C43.8092 53.2301 44.3617 53.542 44.727 54.041L45.2349 54.7449C45.5022 55.1102 45.6447 55.5468 45.6447 56.0012V72.0842C45.6447 72.7614 45.4398 73.4029 45.0477 73.9464L29.3568 95.8745ZM15.1183 89.2542L29.0539 94.8409L44.3706 73.4564C44.6557 73.0554 44.8072 72.5832 44.8072 72.0842V55.9834C44.8072 55.7161 44.727 55.4488 44.5666 55.2349L44.0587 54.531C43.8449 54.237 43.5152 54.041 43.1499 54.0053C42.7845 53.9697 42.4192 54.0944 42.1519 54.3439L41.9113 54.5756C41.7688 54.7092 41.6619 54.8696 41.5906 55.0478L40.6104 57.5694C40.2184 58.5763 39.2294 59.2624 38.1423 59.2624H35.6742C34.498 59.2624 33.5357 58.309 33.5357 57.1239V48.3206L32.618 48.2849C31.6467 48.2849 30.7201 48.6948 30.0785 49.4165L21.1683 59.3515C20.7317 59.8415 20.4911 60.4652 20.4911 61.1157V71.8614C20.4911 72.3515 20.6248 72.8237 20.8832 73.2336L23.1197 76.8155C24.0909 78.3659 23.8681 80.3707 22.585 81.6716L15.1183 89.2542Z"
  fill="black"
></path>
<path
  d="M23.3248 103.867H2.06493C1.19173 103.867 0.425446 103.333 0.131408 102.513C-0.17154 101.684 0.0779466 100.793 0.746215 100.232L14.2809 88.9248L29.7669 95.1263L27.1562 101.328C26.5057 102.869 25.0088 103.867 23.3248 103.867ZM14.4413 89.9049L1.29865 100.882C0.817496 101.283 0.799676 101.836 0.94224 102.219C1.0848 102.602 1.45012 103.012 2.07384 103.012H23.3337C24.6702 103.012 25.8642 102.219 26.381 100.989L28.6531 95.5897L14.4413 89.9049Z"
  fill="black"
></path>
<path
  d="M115.962 95.8748L100.253 73.9467C99.8612 73.4032 99.6562 72.7527 99.6562 72.0844V55.9836C99.6562 55.5292 99.7988 55.0926 100.066 54.7273L100.574 54.0234C100.93 53.5333 101.483 53.2126 102.098 53.1502C102.704 53.0967 103.309 53.2927 103.755 53.7115L103.996 53.9432C104.227 54.1659 104.414 54.4333 104.53 54.7362L105.51 57.2578C105.778 57.9439 106.446 58.3983 107.176 58.3983H109.645C110.349 58.3983 110.928 57.8281 110.928 57.1152V48.3119C110.928 47.8219 111.329 47.4209 111.819 47.4209H112.692C113.904 47.4209 115.062 47.9377 115.873 48.8376L124.783 58.7725C125.362 59.4141 125.674 60.2427 125.674 61.107V71.8528C125.674 72.5032 125.496 73.1269 125.148 73.6794L122.912 77.2613C122.155 78.482 122.324 80.0413 123.331 81.066L131.697 89.5485L115.962 95.8748ZM102.294 54.0056C102.249 54.0056 102.213 54.0056 102.169 54.0145C101.804 54.0501 101.474 54.2372 101.26 54.5402L100.752 55.2441C100.592 55.4668 100.512 55.7252 100.512 55.9925V72.0844C100.512 72.5745 100.663 73.0467 100.948 73.4566L116.265 94.8412L130.201 89.2545L122.734 81.6808C121.451 80.3799 121.228 78.3751 122.199 76.8247L124.436 73.2428C124.694 72.8329 124.828 72.3517 124.828 71.8706V61.1248C124.828 60.4744 124.587 59.8418 124.151 59.3606L115.24 49.4257C114.59 48.704 113.663 48.2941 112.701 48.2941H111.828L111.792 57.142C111.792 58.3181 110.839 59.2804 109.654 59.2804H107.185C106.098 59.2804 105.109 58.6032 104.717 57.5875L103.737 55.0659C103.666 54.8877 103.559 54.7184 103.416 54.5936L103.176 54.362C102.926 54.1303 102.623 54.0056 102.294 54.0056Z"
  fill="black"
></path>
<path
  d="M130.94 89.4062L144.279 100.553C145.446 101.533 144.76 103.44 143.236 103.44H121.976C120.48 103.44 119.125 102.54 118.537 101.159L116.096 95.3583L130.94 89.4062Z"
  fill="black"
></path>
<path
  d="M143.235 103.866H121.975C120.3 103.866 118.794 102.868 118.144 101.318L115.533 95.1166L131.019 88.915L144.554 100.222C145.231 100.783 145.472 101.683 145.169 102.503C144.875 103.332 144.108 103.866 143.235 103.866ZM116.665 95.5888L118.937 100.988C119.454 102.218 120.648 103.011 121.984 103.011H143.244C143.868 103.011 144.233 102.601 144.376 102.218C144.518 101.835 144.491 101.282 144.019 100.881L130.877 89.9041L116.665 95.5888Z"
  fill="black"
></path>
<path
  d="M28.3808 51.1533H27.5254V57.8449H28.3808V51.1533Z"
  fill="black"
></path>
<path
  d="M24.2401 55.751H23.3848V62.3H24.2401V55.751Z"
  fill="black"
></path>
<path
  d="M117.81 51.1533H116.955V57.8449H117.81V51.1533Z"
  fill="black"
></path>
<path
  d="M121.945 55.751H121.09V62.3H121.945V55.751Z"
  fill="black"
></path>
<path
  d="M20.5724 16.8381L20.2499 15.4062L19.9275 16.8381C19.5198 18.6778 18.0879 20.1096 16.2483 20.5174L14.8164 20.8398L16.2483 21.1622C18.0879 21.57 19.5198 23.0018 19.9275 24.8415L20.2499 26.2733L20.5724 24.8415C20.9801 23.0018 22.412 21.57 24.2516 21.1622L25.6835 20.8398L24.2516 20.5174C22.4215 20.1096 20.9801 18.6778 20.5724 16.8381Z"
  fill="#05D484"
></path>
<path
  d="M127.717 32.2388L127.382 30.75L127.047 32.2388C126.623 34.1515 125.134 35.6403 123.221 36.0643L121.732 36.3995L123.221 36.7347C125.134 37.1587 126.623 38.6475 127.047 40.5602L127.382 42.049L127.717 40.5602C128.141 38.6475 129.63 37.1587 131.543 36.7347L133.031 36.3995L131.543 36.0643C129.64 35.6403 128.151 34.1515 127.717 32.2388Z"
  fill="#05D484"
></path>
</svg>