<svg  xmlns="http://www.w3.org/2000/svg" viewBox="0 0 146 105" fill="none" ><path d="M4.65234 88.5868L60.0411 88.5779L82.241 80.0832L89.5286 88.4714L112.19 88.5957L114.036 87.5305L118.989 80.0921L150.802 80.4028L153.19 84.4593L155.578 84.7167L158.933 82.2934L159.199 71.4287V79.0269C159.199 79.9323 159.102 80.82 158.898 81.6721C157.699 87.0601 152.888 91.0811 147.145 91.0811H9.08167C7.19987 91.0722 5.55774 90.078 4.65234 88.5868Z" fill="#BFBFBF"></path><path d="M144.921 70.9932H124.771V71.8453H144.921V70.9932Z" fill="black"></path><path d="M147.158 91.4984H9.09404C7.1146 91.4984 5.32157 90.4954 4.30078 88.8089L5.02865 88.3651C5.89854 89.7942 7.4164 90.6463 9.09404 90.6463H147.158C147.681 90.6463 148.178 90.6108 148.693 90.5398C149.004 90.5043 149.306 90.451 149.599 90.3889C149.803 90.3445 149.989 90.3001 150.167 90.2469C150.309 90.2114 150.442 90.167 150.575 90.1315C150.691 90.1049 150.788 90.0693 150.868 90.0427C151.019 89.9983 151.152 89.9451 151.285 89.8918L151.347 89.8297H151.445C151.889 89.661 152.306 89.448 152.626 89.2882C152.785 89.1995 152.927 89.1196 153.078 89.0308C153.3 88.8977 153.513 88.7645 153.717 88.6225C153.886 88.4982 154.072 88.3651 154.25 88.2408C154.427 88.1077 154.587 87.9656 154.765 87.8236C155.084 87.5396 155.404 87.2378 155.706 86.9093C155.857 86.7496 155.999 86.5809 156.132 86.4211C156.265 86.2702 156.371 86.1282 156.478 85.9862C156.629 85.782 156.771 85.5868 156.904 85.3648C157.028 85.1696 157.144 84.9832 157.25 84.7968L157.286 84.7346C157.49 84.3796 157.667 84.0068 157.836 83.6073C158.022 83.1724 158.164 82.7552 158.289 82.3469C158.36 82.1427 158.404 81.9297 158.457 81.7166V81.7078L158.52 81.477C158.528 81.4326 158.537 81.3882 158.537 81.3438L158.573 81.1663C158.608 80.9977 158.626 80.8734 158.644 80.7402C158.679 80.545 158.706 80.3586 158.724 80.1721C158.741 79.9857 158.759 79.7816 158.768 79.5952C158.777 79.3821 158.786 79.2046 158.786 79.0093V71.4111H159.638V79.0093C159.638 79.2135 159.629 79.4088 159.62 79.6041C159.611 79.826 159.594 80.039 159.576 80.2432C159.558 80.4473 159.531 80.6604 159.487 80.8645C159.469 81.0154 159.434 81.1752 159.407 81.3438L159.381 81.477C159.372 81.5214 159.372 81.5657 159.363 81.6013L159.434 81.7433L159.292 81.8942C159.238 82.125 159.176 82.3557 159.105 82.5865C158.972 83.0126 158.821 83.4564 158.626 83.9269C158.44 84.3707 158.235 84.779 158.005 85.1784L157.96 85.2495C157.845 85.4359 157.738 85.6311 157.614 85.8087C157.472 86.0395 157.312 86.2614 157.144 86.4833C157.019 86.6431 156.895 86.8028 156.771 86.9537C156.638 87.1224 156.478 87.3088 156.318 87.4774C155.999 87.8236 155.661 88.152 155.315 88.4538C155.129 88.6136 154.951 88.7556 154.765 88.9065C154.578 89.0397 154.392 89.1817 154.206 89.3149C153.975 89.4658 153.744 89.6166 153.522 89.7498C153.371 89.8474 153.211 89.9362 153.052 90.0161C152.679 90.2025 152.244 90.4244 151.765 90.6108L151.702 90.6729H151.605C151.454 90.7262 151.303 90.7883 151.152 90.8327C151.054 90.8682 150.939 90.9037 150.815 90.9392C150.691 90.9747 150.54 91.028 150.389 91.0635C150.202 91.1168 150.016 91.1611 149.821 91.2055C149.466 91.2854 149.137 91.3387 148.809 91.3831C148.258 91.4629 147.717 91.4984 147.158 91.4984ZM159.336 81.5657L159.345 81.5746C159.354 81.5569 159.363 81.5302 159.372 81.5125L159.336 81.5657ZM159.389 81.3793C159.389 81.3971 159.389 81.4237 159.381 81.4415C159.389 81.4237 159.389 81.406 159.389 81.3793Z" fill="black"></path><path d="M111.465 89.0037H90.9695C89.7535 89.0037 88.6262 88.4533 87.8717 87.4947L78.1698 75.1298C76.4477 72.9285 73.7493 71.6148 70.9621 71.6148H61.5531C59.6358 71.6148 57.8162 72.3515 56.4403 73.683C55.0023 75.0677 54.1768 77.0028 54.1768 79.0088V83.2784H3.45703V61.0075C3.45703 56.8001 6.88332 53.3738 11.0907 53.3738H34.1783L50.8215 33.5882C52.3217 31.7952 54.5319 30.7744 56.8664 30.7744H145.879C148.702 30.7744 151.196 32.4698 152.234 35.0883L159.069 52.2908C159.442 53.2406 159.629 54.2348 159.629 55.2467V80.0651C159.629 82.8257 157.383 85.0714 154.622 85.0714C153.53 85.0714 152.519 84.4767 151.986 83.518L147.406 75.3162C145.444 71.8101 141.734 69.6353 137.73 69.6353H132.884C129.28 69.6353 125.898 71.3929 123.821 74.331L114.67 87.326C113.933 88.3823 112.734 89.0037 111.465 89.0037ZM61.5531 70.7626H70.9621C74.0156 70.7626 76.9626 72.2006 78.8444 74.6061L88.5463 86.9798C89.141 87.7255 90.0198 88.1604 90.9784 88.1604H111.474C112.468 88.1604 113.409 87.6722 113.995 86.8467L123.147 73.8516C125.383 70.6827 129.032 68.7921 132.902 68.7921H137.748C142.062 68.7921 146.057 71.1354 148.169 74.9079L152.749 83.1008C153.131 83.7843 153.859 84.2193 154.64 84.2193C156.93 84.2193 158.794 82.3552 158.794 80.0651V55.2467C158.794 54.3413 158.626 53.4536 158.288 52.6104L151.453 35.4079C150.539 33.1089 148.355 31.6266 145.888 31.6266H56.8753C54.7893 31.6266 52.8187 32.5408 51.4784 34.1386L34.5777 54.2259H11.0907C7.35377 54.2259 4.30917 57.2705 4.30917 61.0075V82.4262H53.3158V78.9999C53.3158 76.772 54.239 74.6061 55.8456 73.0616C57.3812 71.5793 59.405 70.7626 61.5531 70.7626Z" fill="black"></path><path d="M74.2192 54.2172H34.373V53.3651H73.7932L87.4806 34.982H54.3805V34.1299H89.176L74.2192 54.2172Z" fill="black"></path><path d="M120.589 54.2172H79.5801L93.1521 34.1299H120.589V54.2172ZM81.1778 53.3651H119.728V34.982H93.5959L81.1778 53.3651Z" fill="black"></path><path d="M154.469 54.2172H124.502V34.1299H146.427L154.469 54.2172ZM125.354 53.3651H153.208L145.85 34.982H125.354V53.3651Z" fill="black"></path><path d="M120.155 59.4639H113.4V60.316H120.155V59.4639Z" fill="black"></path><path d="M153.823 59.4639H147.068V60.316H153.823V59.4639Z" fill="black"></path><path d="M11.4834 67.2206C8.64291 67.2206 6.32617 64.9039 6.32617 62.0634C6.32617 59.223 8.64291 56.9062 11.4834 56.9062C14.3238 56.9062 16.6406 59.223 16.6406 62.0634C16.6406 64.9039 14.3238 67.2206 11.4834 67.2206ZM11.4834 57.7673C9.11336 57.7673 7.17831 59.6934 7.17831 62.0723C7.17831 64.4423 9.11336 66.3774 11.4834 66.3774C13.8534 66.3774 15.7884 64.4512 15.7884 62.0723C15.7795 59.6934 13.8534 57.7673 11.4834 57.7673Z" fill="black"></path><path d="M47.8916 67.2206C45.0511 67.2206 42.7344 64.9039 42.7344 62.0634C42.7344 59.223 45.0511 56.9062 47.8916 56.9062C50.732 56.9062 53.0488 59.223 53.0488 62.0634C53.0488 64.9039 50.7409 67.2206 47.8916 67.2206ZM47.8916 57.7673C45.5216 57.7673 43.5865 59.6934 43.5865 62.0723C43.5865 64.4423 45.5216 66.3774 47.8916 66.3774C50.2616 66.3774 52.1966 64.4512 52.1966 62.0723C52.1966 59.6934 50.2704 57.7673 47.8916 57.7673Z" fill="black"></path><path d="M63.4323 69.1289H70.4625C77.8476 69.1289 83.8392 77.1177 83.8392 86.9794C83.8392 96.8411 77.8476 104.83 70.4625 104.83H63.7696V104.812C63.6631 104.812 63.5477 104.83 63.4412 104.83C56.056 104.83 50.0645 96.8411 50.0645 86.9794C50.0556 77.1177 56.0472 69.1289 63.4323 69.1289Z" fill="black"></path><path d="M70.4401 99.1228C65.4161 99.1228 61.3418 93.6815 61.3418 86.9798C61.3418 80.2693 65.4161 74.8369 70.4401 74.8369C75.4642 74.8369 79.5384 80.2782 79.5384 86.9798C79.5384 93.6815 75.4642 99.1228 70.4401 99.1228Z" fill="white"></path><path d="M131.326 69.1289H138.365C145.75 69.1289 151.742 77.1177 151.742 86.9794C151.742 96.8411 145.75 104.83 138.365 104.83H131.672V104.812C131.565 104.812 131.45 104.83 131.344 104.83C123.958 104.83 117.967 96.8411 117.967 86.9794C117.949 77.1177 123.932 69.1289 131.326 69.1289Z" fill="black"></path><path d="M138.35 99.1228C133.326 99.1228 129.252 93.6815 129.252 86.9798C129.252 80.2693 133.326 74.8369 138.35 74.8369C143.374 74.8369 147.449 80.2782 147.449 86.9798C147.449 93.6815 143.374 99.1228 138.35 99.1228Z" fill="white"></path><path d="M36.2701 59.8896H35.418V71.4201H36.2701V59.8896Z" fill="black"></path><path d="M31.5846 59.8896H30.7324V71.4201H31.5846V59.8896Z" fill="black"></path><path d="M26.9049 59.8896H26.0527V71.4201H26.9049V59.8896Z" fill="black"></path><path d="M22.2389 59.8896H21.3867V71.4201H22.2389V59.8896Z" fill="black"></path><path d="M56.6265 89.0209H1.38863C0.625255 89.0209 0.00390625 88.3995 0.00390625 87.6361V83.8193C0.00390625 83.0559 0.625255 82.4346 1.38863 82.4346H56.6265C57.3899 82.4346 58.0112 83.0559 58.0112 83.8193V87.6361C58.0112 88.3906 57.3899 89.0209 56.6265 89.0209ZM1.38863 83.2778C1.0957 83.2778 0.856041 83.5175 0.856041 83.8104V87.6273C0.856041 87.9202 1.0957 88.1599 1.38863 88.1599H56.6265C56.9194 88.1599 57.1591 87.9202 57.1591 87.6273V83.8104C57.1591 83.5175 56.9194 83.2778 56.6265 83.2778H1.38863Z" fill="black"></path><path d="M86.0028 10.2872L79.7891 16.501L80.4167 17.1286L86.6305 10.9149L86.0028 10.2872Z" fill="black"></path><path d="M67.9833 11.6154L61.7695 17.8291L62.3972 18.4568L68.6109 12.243L67.9833 11.6154Z" fill="black"></path><path d="M22.2817 17.9925L21.8112 15.8799L21.3408 17.9925C20.7372 20.6998 18.6246 22.8124 15.9173 23.416L13.8047 23.8864L15.9173 24.3569C18.6246 24.9605 20.7372 27.073 21.3408 29.7803L21.8112 31.8929L22.2817 29.7803C22.8853 27.073 24.9978 24.9605 27.7051 24.3569L29.8177 23.8864L27.7051 23.416C24.9978 22.8124 22.8853 20.6998 22.2817 17.9925Z" fill="#05D484"></path><path d="M137.312 2.00607L136.859 0L136.406 2.00607C135.829 4.58023 133.823 6.5863 131.258 7.16326L129.252 7.61596L131.258 8.06866C133.832 8.64562 135.838 10.6517 136.406 13.2258L136.859 15.2319L137.312 13.2258C137.889 10.6517 139.895 8.64562 142.469 8.06866L144.475 7.61596L142.469 7.16326C139.895 6.5863 137.88 4.57135 137.312 2.00607Z" fill="#05D484"></path><path d="M43.1301 91.0723C41.7454 98.9545 36.4373 104.822 30.1084 104.822H23.4156V104.804C23.2914 104.813 23.1937 104.822 23.0783 104.822C16.7495 104.822 11.4414 98.9545 10.0566 91.0723H43.1301Z" fill="black"></path></svg>